<?xml version="1.0" standalone="no"?>
<!DOCTYPE svg PUBLIC "-//W3C//DTD SVG 20010904//EN"
 "http://www.w3.org/TR/2001/REC-SVG-20010904/DTD/svg10.dtd">
<svg version="1.0" xmlns="http://www.w3.org/2000/svg"
 width="345.000000pt" height="345.000000pt" viewBox="0 0 345.000000 345.000000"
 preserveAspectRatio="xMidYMid meet">
<metadata>
Created by potrace 1.14, written by Peter Selinger 2001-2017
</metadata>
<g transform="translate(0.000000,345.000000) scale(0.100000,-0.100000)"
fill="#000000" stroke="none">
<path d="M1709 2874 c-23 -28 -67 -44 -123 -44 -150 0 -300 -139 -335 -310
-18 -91 -31 -284 -31 -487 0 -185 1 -193 23 -218 20 -23 57 -34 342 -100 176
-41 330 -77 343 -80 l22 -5 0 -243 c0 -133 -5 -280 -10 -327 -13 -111 -57
-203 -144 -296 -61 -66 -64 -68 -88 -56 -39 21 -168 133 -202 175 l-31 39 -3
214 -3 214 -125 0 -124 0 0 -217 c0 -252 5 -270 93 -349 48 -42 221 -135 359
-192 l55 -23 84 34 c46 19 102 40 124 47 58 19 145 112 189 202 44 89 62 191
76 418 15 256 13 329 -10 367 -23 39 -11 35 -405 127 l-310 72 -3 219 c-4 335
14 462 83 556 31 44 144 129 169 129 23 0 99 -74 138 -134 21 -33 49 -95 63
-138 22 -71 25 -96 25 -244 l0 -164 130 0 130 0 0 148 c0 95 -6 170 -15 212
-23 95 -96 237 -160 308 -76 84 -109 102 -181 102 -51 0 -65 4 -96 30 -32 26
-37 28 -49 14z"/>
<path d="M10 1725 l0 -1105 125 0 125 0 0 575 0 575 59 0 c57 0 61 -2 115 -51
105 -96 190 -267 221 -446 11 -62 15 -162 15 -369 l0 -284 126 0 125 0 -3 353
c-5 401 -9 429 -93 603 -66 136 -139 210 -253 255 -38 14 -42 18 -21 19 14 0
53 14 87 31 117 58 221 209 262 382 17 70 20 118 20 325 l0 242 -124 0 -124 0
-5 -247 c-5 -281 -10 -310 -83 -461 -72 -150 -203 -272 -293 -272 l-31 0 0
490 0 490 -125 0 -125 0 0 -1105z"/>
<path d="M2530 1725 l0 -1105 125 0 125 0 0 575 0 575 61 0 62 0 71 -73 c83
-83 151 -208 188 -342 20 -73 22 -108 26 -407 l3 -328 130 0 129 0 0 259 c0
402 -22 540 -115 720 -65 126 -137 193 -254 236 -31 12 -33 14 -11 14 14 1 52
14 85 29 118 56 218 199 266 378 18 67 22 117 26 327 l5 247 -130 0 -130 0 -4
-252 -4 -253 -32 -95 c-18 -52 -51 -126 -73 -163 -72 -122 -197 -223 -266
-215 l-28 3 -3 488 -2 487 -125 0 -125 0 0 -1105z"/>
</g>
</svg>
